<svg width="316" height="34" viewBox="0 0 316 34" fill="none" xmlns="http://www.w3.org/2000/svg">
<path d="M16.36 9.96L18.36 14.4L5.71999 19.68L18.36 24.8L16.36 29.4L0.359985 22.48V16.92L16.36 9.96Z" fill="#898EB9"/>
<path d="M39.5544 5.28C43.901 5.28 47.381 6.26667 49.9944 8.24C52.6344 10.1867 53.9544 13.7733 53.9544 19C53.9544 24.1467 52.6744 27.7733 50.1144 29.88C47.5544 31.96 44.2344 33 40.1544 33H31.8344V5.28H39.5544ZM38.3944 10.04V28.24H40.5544C42.7144 28.24 44.3544 27.5733 45.4744 26.24C46.5944 24.88 47.1544 22.4667 47.1544 19C47.1544 16.6267 46.8744 14.7867 46.3144 13.48C45.7544 12.1733 44.9944 11.28 44.0344 10.8C43.0744 10.2933 41.8877 10.04 40.4744 10.04H38.3944Z" fill="#141414"/>
<path d="M74.2584 26.84C74.2584 27.64 74.3651 28.2267 74.5784 28.6C74.8184 28.9733 75.1918 29.2533 75.6984 29.44L74.3784 33.56C73.0718 33.4533 72.0051 33.1733 71.1784 32.72C70.3518 32.24 69.7118 31.4933 69.2584 30.48C67.8718 32.6133 65.7384 33.68 62.8584 33.68C60.7518 33.68 59.0718 33.0667 57.8184 31.84C56.5651 30.6133 55.9384 29.0133 55.9384 27.04C55.9384 24.72 56.7918 22.9467 58.4984 21.72C60.2051 20.4933 62.6718 19.88 65.8984 19.88H68.0584V18.96C68.0584 17.7067 67.7918 16.8533 67.2584 16.4C66.7251 15.92 65.7918 15.68 64.4584 15.68C63.7651 15.68 62.9251 15.7867 61.9384 16C60.9518 16.1867 59.9384 16.4533 58.8984 16.8L57.4584 12.64C58.7918 12.1333 60.1518 11.7467 61.5384 11.48C62.9518 11.2133 64.2584 11.08 65.4584 11.08C68.4984 11.08 70.7251 11.7067 72.1384 12.96C73.5518 14.2133 74.2584 16.0933 74.2584 18.6V26.84ZM64.6984 29.16C66.1384 29.16 67.2584 28.48 68.0584 27.12V23.36H66.4984C65.0584 23.36 63.9784 23.6133 63.2584 24.12C62.5651 24.6267 62.2184 25.4133 62.2184 26.48C62.2184 27.3333 62.4318 28 62.8584 28.48C63.3118 28.9333 63.9251 29.16 64.6984 29.16Z" fill="#141414"/>
<path d="M91.7325 11.08C93.5725 11.08 95.0125 11.64 96.0525 12.76C97.0925 13.88 97.6125 15.4533 97.6125 17.48V33H91.2925V18.56C91.2925 17.4933 91.1192 16.76 90.7725 16.36C90.4525 15.9333 89.9592 15.72 89.2925 15.72C88.0125 15.72 86.7858 16.64 85.6125 18.48V33H79.2925V11.76H84.8125L85.2525 14.28C86.1592 13.2133 87.1325 12.4133 88.1725 11.88C89.2392 11.3467 90.4258 11.08 91.7325 11.08Z" fill="#141414"/>
<path d="M108.698 11.76V33H102.378V11.76H108.698ZM105.498 0.559998C106.592 0.559998 107.485 0.906665 108.178 1.6C108.898 2.26666 109.258 3.12 109.258 4.16C109.258 5.2 108.898 6.06666 108.178 6.76C107.485 7.42666 106.592 7.76 105.498 7.76C104.405 7.76 103.512 7.42666 102.818 6.76C102.125 6.06666 101.778 5.2 101.778 4.16C101.778 3.12 102.125 2.26666 102.818 1.6C103.512 0.906665 104.405 0.559998 105.498 0.559998Z" fill="#141414"/>
<path d="M119.307 33.68C117.467 33.68 116.027 33.16 114.987 32.12C113.974 31.0533 113.467 29.5467 113.467 27.6V3.32L119.787 2.64V27.36C119.787 28.24 120.147 28.68 120.867 28.68C121.241 28.68 121.587 28.6133 121.907 28.48L123.147 32.96C122.001 33.44 120.721 33.68 119.307 33.68Z" fill="#141414"/>
<path d="M134.547 11.08C137.801 11.08 140.347 12.08 142.187 14.08C144.027 16.0533 144.947 18.8267 144.947 22.4C144.947 24.6667 144.521 26.6533 143.667 28.36C142.841 30.04 141.641 31.3467 140.067 32.28C138.521 33.2133 136.681 33.68 134.547 33.68C131.321 33.68 128.774 32.6933 126.907 30.72C125.067 28.72 124.147 25.9333 124.147 22.36C124.147 20.0933 124.561 18.12 125.387 16.44C126.241 14.7333 127.441 13.4133 128.987 12.48C130.561 11.5467 132.414 11.08 134.547 11.08ZM134.547 15.72C133.267 15.72 132.307 16.2667 131.667 17.36C131.027 18.4267 130.707 20.0933 130.707 22.36C130.707 24.68 131.014 26.3733 131.627 27.44C132.267 28.5067 133.241 29.04 134.547 29.04C135.827 29.04 136.787 28.5067 137.427 27.44C138.067 26.3467 138.387 24.6667 138.387 22.4C138.387 20.08 138.067 18.3867 137.427 17.32C136.814 16.2533 135.854 15.72 134.547 15.72Z" fill="#141414"/>
<path d="M177.279 5.28L176.639 10.32H169.799V33H163.239V10.32H156.079V5.28H177.279Z" fill="#141414"/>
<path d="M194.688 26.84C194.688 27.64 194.795 28.2267 195.008 28.6C195.248 28.9733 195.621 29.2533 196.128 29.44L194.808 33.56C193.501 33.4533 192.435 33.1733 191.608 32.72C190.781 32.24 190.141 31.4933 189.688 30.48C188.301 32.6133 186.168 33.68 183.288 33.68C181.181 33.68 179.501 33.0667 178.248 31.84C176.995 30.6133 176.368 29.0133 176.368 27.04C176.368 24.72 177.221 22.9467 178.928 21.72C180.635 20.4933 183.101 19.88 186.328 19.88H188.488V18.96C188.488 17.7067 188.221 16.8533 187.688 16.4C187.155 15.92 186.221 15.68 184.888 15.68C184.195 15.68 183.355 15.7867 182.368 16C181.381 16.1867 180.368 16.4533 179.328 16.8L177.888 12.64C179.221 12.1333 180.581 11.7467 181.968 11.48C183.381 11.2133 184.688 11.08 185.888 11.08C188.928 11.08 191.155 11.7067 192.568 12.96C193.981 14.2133 194.688 16.0933 194.688 18.6V26.84ZM185.128 29.16C186.568 29.16 187.688 28.48 188.488 27.12V23.36H186.928C185.488 23.36 184.408 23.6133 183.688 24.12C182.995 24.6267 182.648 25.4133 182.648 26.48C182.648 27.3333 182.861 28 183.288 28.48C183.741 28.9333 184.355 29.16 185.128 29.16Z" fill="#141414"/>
<path d="M217.416 11.76L210.736 33H203.256L196.416 11.76H203.296L207.056 28.2L210.976 11.76H217.416Z" fill="#141414"/>
<path d="M237.852 21.96C237.852 22.84 237.812 23.6 237.732 24.24H224.572C224.785 26.0267 225.292 27.28 226.092 28C226.892 28.72 227.998 29.08 229.412 29.08C230.265 29.08 231.092 28.9333 231.892 28.64C232.692 28.32 233.558 27.84 234.492 27.2L237.092 30.72C234.612 32.6933 231.852 33.68 228.812 33.68C225.372 33.68 222.732 32.6667 220.892 30.64C219.052 28.6133 218.132 25.8933 218.132 22.48C218.132 20.32 218.518 18.3867 219.292 16.68C220.065 14.9467 221.198 13.5867 222.692 12.6C224.185 11.5867 225.972 11.08 228.052 11.08C231.118 11.08 233.518 12.04 235.252 13.96C236.985 15.88 237.852 18.5467 237.852 21.96ZM231.652 20.16C231.598 16.9067 230.452 15.28 228.212 15.28C227.118 15.28 226.265 15.68 225.652 16.48C225.065 17.28 224.705 18.6 224.572 20.44H231.652V20.16Z" fill="#141414"/>
<path d="M247.722 11.76V33H241.402V11.76H247.722ZM244.522 0.559998C245.615 0.559998 246.509 0.906665 247.202 1.6C247.922 2.26666 248.282 3.12 248.282 4.16C248.282 5.2 247.922 6.06666 247.202 6.76C246.509 7.42666 245.615 7.76 244.522 7.76C243.429 7.76 242.535 7.42666 241.842 6.76C241.149 6.06666 240.802 5.2 240.802 4.16C240.802 3.12 241.149 2.26666 241.842 1.6C242.535 0.906665 243.429 0.559998 244.522 0.559998Z" fill="#141414"/>
<path d="M264.211 11.16C264.984 11.16 265.691 11.2533 266.331 11.44L265.331 17.56C264.531 17.3733 263.891 17.28 263.411 17.28C262.158 17.28 261.198 17.72 260.531 18.6C259.891 19.4533 259.384 20.7467 259.011 22.48V33H252.691V11.76H258.211L258.731 15.88C259.211 14.4133 259.931 13.2667 260.891 12.44C261.878 11.5867 262.984 11.16 264.211 11.16Z" fill="#141414"/>
<path d="M284.219 26.84C284.219 27.64 284.326 28.2267 284.539 28.6C284.779 28.9733 285.153 29.2533 285.659 29.44L284.339 33.56C283.033 33.4533 281.966 33.1733 281.139 32.72C280.313 32.24 279.673 31.4933 279.219 30.48C277.833 32.6133 275.699 33.68 272.819 33.68C270.713 33.68 269.033 33.0667 267.779 31.84C266.526 30.6133 265.899 29.0133 265.899 27.04C265.899 24.72 266.753 22.9467 268.459 21.72C270.166 20.4933 272.633 19.88 275.859 19.88H278.019V18.96C278.019 17.7067 277.753 16.8533 277.219 16.4C276.686 15.92 275.753 15.68 274.419 15.68C273.726 15.68 272.886 15.7867 271.899 16C270.913 16.1867 269.899 16.4533 268.859 16.8L267.419 12.64C268.753 12.1333 270.113 11.7467 271.499 11.48C272.913 11.2133 274.219 11.08 275.419 11.08C278.459 11.08 280.686 11.7067 282.099 12.96C283.513 14.2133 284.219 16.0933 284.219 18.6V26.84ZM274.659 29.16C276.099 29.16 277.219 28.48 278.019 27.12V23.36H276.459C275.019 23.36 273.939 23.6133 273.219 24.12C272.526 24.6267 272.179 25.4133 272.179 26.48C272.179 27.3333 272.393 28 272.819 28.48C273.273 28.9333 273.886 29.16 274.659 29.16Z" fill="#141414"/>
<path d="M299.626 9.96L315.626 16.92V22.48L299.626 29.4L297.626 24.8L310.266 19.68L297.626 14.4L299.626 9.96Z" fill="#898EB9"/>
</svg>
