<svg width="20" height="20" viewBox="0 0 20 20" fill="none" xmlns="http://www.w3.org/2000/svg">
<path d="M2.91669 16.6666C2.58335 16.6666 2.29169 16.5416 2.04169 16.2916C1.79169 16.0416 1.66669 15.75 1.66669 15.4166V4.58331C1.66669 4.24998 1.79169 3.95831 2.04169 3.70831C2.29169 3.45831 2.58335 3.33331 2.91669 3.33331H17.0834C17.4167 3.33331 17.7084 3.45831 17.9584 3.70831C18.2084 3.95831 18.3334 4.24998 18.3334 4.58331V15.4166C18.3334 15.75 18.2084 16.0416 17.9584 16.2916C17.7084 16.5416 17.4167 16.6666 17.0834 16.6666H2.91669ZM2.91669 15.4166H12.5209V12.0208H2.91669V15.4166ZM13.7709 15.4166H17.0834V7.37498H13.7709V15.4166ZM2.91669 10.7708H12.5209V7.37498H2.91669V10.7708Z" fill="#898EB9"/>
</svg>
