<svg width="106" height="106" viewBox="0 0 106 106" fill="none" xmlns="http://www.w3.org/2000/svg">
<path d="M96.4114 0H9.58856C4.293 0 0 4.293 0 9.58856V96.4112C0 101.707 4.293 106 9.58856 106H96.4112C101.707 106 106 101.707 106 96.4112V9.58856C106 4.293 101.707 0 96.4114 0ZM32.8009 91.5274C32.8009 93.0686 31.5517 94.3178 30.0105 94.3178H18.1324C16.5912 94.3178 15.342 93.0686 15.342 91.5274V41.7349C15.342 40.1937 16.5912 38.9445 18.1324 38.9445H30.0105C31.5517 38.9445 32.8009 40.1937 32.8009 41.7349V91.5274ZM24.0714 34.2508C17.8394 34.2508 12.7872 29.1986 12.7872 22.9665C12.7872 16.7344 17.8394 11.6822 24.0714 11.6822C30.3035 11.6822 35.3557 16.7344 35.3557 22.9665C35.3557 29.1986 30.3038 34.2508 24.0714 34.2508ZM94.8756 91.7522C94.8756 93.169 93.7268 94.3178 92.3099 94.3178H79.5638C78.147 94.3178 76.9982 93.169 76.9982 91.7522V68.3966C76.9982 64.9125 78.0202 53.129 67.893 53.129C60.0376 53.129 58.4443 61.1945 58.1244 64.814V91.7522C58.1244 93.169 56.9758 94.3178 55.5587 94.3178H43.2311C41.8142 94.3178 40.6654 93.169 40.6654 91.7522V41.5101C40.6654 40.0933 41.8142 38.9445 43.2311 38.9445H55.5587C56.9756 38.9445 58.1244 40.0933 58.1244 41.5101V45.8542C61.0371 41.4829 65.3659 38.1089 74.5827 38.1089C94.9924 38.1089 94.8756 57.1767 94.8756 67.6535V91.7522Z" fill="#0077B7"/>
</svg>
