<svg width="20" height="20" viewBox="0 0 20 20" fill="none" xmlns="http://www.w3.org/2000/svg">
<g clip-path="url(#clip0_14_175)">
<path d="M16.262 1.21094H8.11753C6.07326 1.21094 4.40085 2.89903 4.40085 4.9433V5.03423L5.90395 5.05179V4.9433C5.90395 3.73555 6.90978 2.71404 8.11753 2.71404H16.2614C17.4704 2.71404 18.4016 3.73555 18.4016 4.9433V9.33284C18.4016 10.4992 17.5118 11.4505 16.3617 11.5144L16.3718 13.037C18.3671 12.9806 19.9994 11.342 19.9994 9.33221V4.94267C20 2.89903 18.3069 1.21094 16.262 1.21094Z" fill="#898EB9"/>
<path d="M12.6475 6.27021L2.74912 6.15608C1.28176 6.13852 0.0783956 7.31429 0.0614645 8.78165L1.09115e-05 14.1168C-0.0175473 15.5829 1.15885 16.7875 2.62558 16.8026L9.24689 16.8791L12.8357 18.7158C13.0633 18.8331 13.3373 18.808 13.543 18.6569C13.7487 18.5039 13.8496 18.2336 13.8045 17.9834L13.6107 16.9023C14.478 16.9023 15.1884 16.232 15.1979 15.3647L15.2725 8.9566C15.2907 7.48987 14.1149 6.28651 12.6475 6.27021ZM11.4291 13.802H3.82205C3.40253 13.802 3.0614 13.4709 3.0614 13.0508C3.0614 12.63 3.4019 12.2989 3.82205 12.2989H11.4285C11.8499 12.2989 12.1904 12.63 12.1904 13.0508C12.1904 13.4703 11.8499 13.802 11.4291 13.802ZM11.4291 10.7958H3.82205C3.40253 10.7958 3.0614 10.4654 3.0614 10.044C3.0614 9.62319 3.4019 9.29209 3.82205 9.29209H11.4285C11.8499 9.29209 12.1904 9.62319 12.1904 10.044C12.1904 10.4647 11.8499 10.7958 11.4291 10.7958Z" fill="#898EB9"/>
</g>
<defs>
<clipPath id="clip0_14_175">
<rect width="20" height="20" fill="white"/>
</clipPath>
</defs>
</svg>
