<svg width="20" height="20" viewBox="0 0 20 20" fill="none" xmlns="http://www.w3.org/2000/svg">
<path d="M10 18.3334C8.83335 18.3334 7.74308 18.1146 6.72919 17.6771C5.7153 17.2396 4.83335 16.6459 4.08335 15.8959C3.33335 15.1459 2.74308 14.2604 2.31252 13.2396C1.88196 12.2188 1.66669 11.125 1.66669 9.95835C1.66669 8.79169 1.88196 7.70488 2.31252 6.69794C2.74308 5.69099 3.33335 4.81252 4.08335 4.06252C4.83335 3.31252 5.7153 2.72571 6.72919 2.3021C7.74308 1.87849 8.83335 1.66669 10 1.66669C11.1667 1.66669 12.257 1.87849 13.2709 2.3021C14.2847 2.72571 15.1667 3.31252 15.9167 4.06252C16.6667 4.81252 17.257 5.69099 17.6875 6.69794C18.1181 7.70488 18.3334 8.79169 18.3334 9.95835C18.3334 11.125 18.1181 12.2188 17.6875 13.2396C17.257 14.2604 16.6667 15.1459 15.9167 15.8959C15.1667 16.6459 14.2847 17.2396 13.2709 17.6771C12.257 18.1146 11.1667 18.3334 10 18.3334ZM13.2917 6.87502H16.4167C15.9584 5.91669 15.3299 5.11808 14.5313 4.47919C13.7327 3.8403 12.8125 3.38891 11.7709 3.12502C12.1181 3.63891 12.4132 4.19446 12.6563 4.79169C12.8993 5.38891 13.1111 6.08335 13.2917 6.87502ZM8.00002 6.87502H12.0417C11.8889 6.13891 11.632 5.4271 11.2709 4.7396C10.9097 4.0521 10.4861 3.44446 10 2.91669C9.55558 3.29169 9.18058 3.78474 8.87502 4.39585C8.56946 5.00696 8.2778 5.83335 8.00002 6.87502ZM3.16669 11.8542H6.47919C6.43752 11.4792 6.41321 11.1424 6.40627 10.8438C6.39933 10.5452 6.39585 10.25 6.39585 9.95835C6.39585 9.61113 6.4028 9.3021 6.41669 9.03127C6.43058 8.76044 6.45835 8.45835 6.50002 8.12502H3.16669C3.06946 8.45835 3.00349 8.75696 2.96877 9.02085C2.93405 9.28474 2.91669 9.59724 2.91669 9.95835C2.91669 10.3195 2.93405 10.6424 2.96877 10.9271C3.00349 11.2118 3.06946 11.5209 3.16669 11.8542ZM8.22919 16.875C7.88196 16.3472 7.58335 15.7778 7.33335 15.1667C7.08335 14.5556 6.87502 13.8681 6.70835 13.1042H3.58335C4.11113 14.0903 4.72224 14.8646 5.41669 15.4271C6.11113 15.9896 7.04863 16.4722 8.22919 16.875ZM3.58335 6.87502H6.72919C6.88196 6.12502 7.07641 5.45488 7.31252 4.8646C7.54863 4.27433 7.84724 3.70141 8.20835 3.14585C7.16669 3.40974 6.25696 3.85419 5.47919 4.47919C4.70141 5.10419 4.06946 5.9028 3.58335 6.87502ZM10 17.125C10.4861 16.625 10.8924 16.0521 11.2188 15.4063C11.5452 14.7604 11.8125 13.9931 12.0209 13.1042H8.00002C8.19447 13.9375 8.45488 14.6875 8.78127 15.3542C9.10766 16.0209 9.51391 16.6111 10 17.125ZM7.77085 11.8542H12.25C12.3056 11.4236 12.3403 11.0729 12.3542 10.8021C12.3681 10.5313 12.375 10.25 12.375 9.95835C12.375 9.68058 12.3681 9.41321 12.3542 9.15627C12.3403 8.89933 12.3056 8.55558 12.25 8.12502H7.77085C7.7153 8.55558 7.68058 8.89933 7.66669 9.15627C7.6528 9.41321 7.64585 9.68058 7.64585 9.95835C7.64585 10.25 7.6528 10.5313 7.66669 10.8021C7.68058 11.0729 7.7153 11.4236 7.77085 11.8542ZM11.7917 16.8542C12.7917 16.5347 13.691 16.0556 14.4896 15.4167C15.2882 14.7778 15.9306 14.007 16.4167 13.1042H13.3125C13.132 13.8542 12.9202 14.5347 12.6771 15.1459C12.434 15.757 12.1389 16.3264 11.7917 16.8542ZM13.5 11.8542H16.8334C16.9306 11.5209 16.9965 11.2118 17.0313 10.9271C17.066 10.6424 17.0834 10.3195 17.0834 9.95835C17.0834 9.59724 17.066 9.28474 17.0313 9.02085C16.9965 8.75696 16.9306 8.45835 16.8334 8.12502H13.5209C13.5625 8.61113 13.5903 8.98266 13.6042 9.2396C13.6181 9.49655 13.625 9.73613 13.625 9.95835C13.625 10.2639 13.6146 10.5521 13.5938 10.8229C13.5729 11.0938 13.5417 11.4375 13.5 11.8542Z" fill="#898EB9"/>
</svg>
