<svg width="20" height="20" viewBox="0 0 20 20" fill="none" xmlns="http://www.w3.org/2000/svg">
<g clip-path="url(#clip0_13_78)">
<path d="M14.7989 11.4922C14.76 11.4735 13.3019 10.7556 13.0429 10.6623C12.9371 10.6243 12.8238 10.5872 12.7032 10.5872C12.5064 10.5872 12.341 10.6854 12.2121 10.8781C12.0665 11.0946 11.6256 11.61 11.4894 11.764C11.4716 11.7843 11.4473 11.8086 11.4327 11.8086C11.4197 11.8086 11.194 11.7156 11.1257 11.686C9.5616 11.0066 8.37441 9.37274 8.2116 9.09723C8.18836 9.05762 8.18738 9.03965 8.18719 9.03965C8.19289 9.01868 8.24551 8.96594 8.27266 8.93875C8.35207 8.8602 8.43813 8.75661 8.52137 8.65641C8.56078 8.60895 8.60027 8.56141 8.63902 8.51661C8.7598 8.3761 8.81356 8.267 8.8759 8.14063L8.90856 8.07497C9.06078 7.77254 8.93078 7.51739 8.88875 7.43497C8.85426 7.36602 8.23863 5.88016 8.17316 5.72407C8.01574 5.34739 7.80777 5.172 7.51875 5.172C7.49191 5.172 7.51875 5.172 7.40629 5.17672C7.26934 5.1825 6.52356 5.28067 6.19383 5.48856C5.84414 5.70903 5.25258 6.41172 5.25258 7.64758C5.25258 8.75985 5.95844 9.81004 6.26149 10.2095C6.26902 10.2195 6.28285 10.24 6.30293 10.2693C7.46352 11.9643 8.91035 13.2204 10.377 13.8063C11.7891 14.3703 12.4577 14.4355 12.8378 14.4355C12.8379 14.4355 12.8379 14.4355 12.8379 14.4355C12.9976 14.4355 13.1255 14.423 13.2383 14.4119L13.3098 14.405C13.7976 14.3618 14.8696 13.8063 15.1134 13.1288C15.3055 12.595 15.3561 12.0119 15.2283 11.8003C15.1408 11.6563 14.9899 11.5839 14.7989 11.4922Z" fill="#8DC63F"/>
<path d="M10.1774 0C4.76071 0 0.353954 4.37363 0.353954 9.74953C0.353954 11.4883 0.819266 13.1903 1.70079 14.6799L0.013563 19.6569C-0.0178823 19.7496 0.00551612 19.8523 0.0741489 19.9221C0.123719 19.9727 0.190907 20 0.25954 20C0.285829 20 0.312313 19.9961 0.338172 19.9878L5.52778 18.3387C6.9479 19.0974 8.55298 19.498 10.1774 19.498C15.5935 19.498 19.9998 15.1249 19.9998 9.74953C19.9998 4.37363 15.5935 0 10.1774 0ZM10.1774 17.4671C8.64884 17.4671 7.16841 17.0258 5.89579 16.1907C5.85302 16.1626 5.80333 16.1482 5.75333 16.1482C5.72688 16.1482 5.7004 16.1522 5.67462 16.1604L3.07493 16.9868L3.91415 14.5109C3.9413 14.4307 3.9277 14.3423 3.8777 14.274C2.9086 12.9499 2.39634 11.3854 2.39634 9.74953C2.39634 5.49348 5.88684 2.0309 10.1772 2.0309C14.4671 2.0309 17.9572 5.49348 17.9572 9.74953C17.9574 14.0051 14.4673 17.4671 10.1774 17.4671Z" fill="#8DC63F"/>
</g>
<defs>
<clipPath id="clip0_13_78">
<rect width="20" height="20" fill="white"/>
</clipPath>
</defs>
</svg>
